<mxfile host="app.diagrams.net" modified="2023-07-11T13:10:00.261Z" agent="Mozilla/5.0 (Windows NT 10.0; Win64; x64) AppleWebKit/537.36 (KHTML, like Gecko) Chrome/114.0.0.0 Safari/537.36" etag="smrcD0SFk5-_Srax2bml" version="21.6.1" type="device">
  <diagram name="Page-1" id="0TgK_A-6iyX0akKdP8mP">
    <mxGraphModel dx="794" dy="470" grid="1" gridSize="10" guides="1" tooltips="1" connect="1" arrows="1" fold="1" page="1" pageScale="1" pageWidth="690" pageHeight="980" math="0" shadow="0">
      <root>
        <mxCell id="0" />
        <mxCell id="1" parent="0" />
        <mxCell id="DJk8aG4OhRuYf08iFIVC-24" value="" style="endArrow=none;dashed=1;html=1;rounded=0;entryX=0.5;entryY=1;entryDx=0;entryDy=0;" edge="1" parent="1">
          <mxGeometry width="50" height="50" relative="1" as="geometry">
            <mxPoint x="607.0263157894738" y="400" as="sourcePoint" />
            <mxPoint x="604.5" y="160" as="targetPoint" />
          </mxGeometry>
        </mxCell>
        <mxCell id="DJk8aG4OhRuYf08iFIVC-27" value="" style="shape=umlActor;verticalLabelPosition=bottom;verticalAlign=top;html=1;outlineConnect=0;" vertex="1" parent="1">
          <mxGeometry x="310" y="82.5" width="30" height="60" as="geometry" />
        </mxCell>
        <mxCell id="DJk8aG4OhRuYf08iFIVC-32" value="" style="shape=image;html=1;verticalAlign=top;verticalLabelPosition=bottom;labelBackgroundColor=#ffffff;imageAspect=0;aspect=fixed;image=https://cdn2.iconfinder.com/data/icons/social-media-2285/512/1_Facebook_colored_svg_copy-128.png" vertex="1" parent="1">
          <mxGeometry x="310" y="67.5" width="30" height="30" as="geometry" />
        </mxCell>
        <mxCell id="DJk8aG4OhRuYf08iFIVC-33" value="&lt;font style=&quot;font-size: 18px;&quot;&gt;&lt;b&gt;Facebook&amp;nbsp;&lt;/b&gt;&lt;/font&gt;" style="text;html=1;strokeColor=none;fillColor=none;align=center;verticalAlign=middle;whiteSpace=wrap;rounded=0;" vertex="1" parent="1">
          <mxGeometry x="270" y="135" width="130" height="30" as="geometry" />
        </mxCell>
        <mxCell id="DJk8aG4OhRuYf08iFIVC-36" value="" style="shape=umlActor;verticalLabelPosition=bottom;verticalAlign=top;html=1;outlineConnect=0;" vertex="1" parent="1">
          <mxGeometry x="590" y="80" width="30" height="65" as="geometry" />
        </mxCell>
        <mxCell id="DJk8aG4OhRuYf08iFIVC-38" value="" style="shape=image;html=1;verticalAlign=top;verticalLabelPosition=bottom;labelBackgroundColor=#ffffff;imageAspect=0;aspect=fixed;image=https://cdn3.iconfinder.com/data/icons/2018-social-media-logotypes/1000/2018_social_media_popular_app_logo-whatsapp-128.png" vertex="1" parent="1">
          <mxGeometry x="590" y="62.5" width="35" height="35" as="geometry" />
        </mxCell>
        <mxCell id="DJk8aG4OhRuYf08iFIVC-39" value="&lt;font style=&quot;font-size: 18px;&quot;&gt;&lt;b&gt;Whatsapp&lt;/b&gt;&lt;/font&gt;" style="text;html=1;strokeColor=none;fillColor=none;align=center;verticalAlign=middle;whiteSpace=wrap;rounded=0;" vertex="1" parent="1">
          <mxGeometry x="565" y="130" width="80" height="40" as="geometry" />
        </mxCell>
        <mxCell id="DJk8aG4OhRuYf08iFIVC-43" value="&lt;font style=&quot;font-size: 10px;&quot;&gt;Create Whatsapp Developer account&amp;nbsp;&lt;/font&gt;" style="text;html=1;strokeColor=none;fillColor=none;align=center;verticalAlign=middle;whiteSpace=wrap;rounded=0;" vertex="1" parent="1">
          <mxGeometry x="150" y="187" width="160" height="40" as="geometry" />
        </mxCell>
        <mxCell id="DJk8aG4OhRuYf08iFIVC-51" value="&lt;font style=&quot;font-size: 10px;&quot;&gt;Create &amp;amp; Register app&lt;/font&gt;" style="text;html=1;strokeColor=none;fillColor=none;align=center;verticalAlign=middle;whiteSpace=wrap;rounded=0;" vertex="1" parent="1">
          <mxGeometry x="140" y="227" width="130" height="30" as="geometry" />
        </mxCell>
        <mxCell id="DJk8aG4OhRuYf08iFIVC-54" value="&lt;b&gt;&lt;font style=&quot;font-size: 14px;&quot;&gt;User/Browser&lt;/font&gt;&lt;/b&gt;" style="shape=umlActor;verticalLabelPosition=bottom;verticalAlign=top;html=1;outlineConnect=0;" vertex="1" parent="1">
          <mxGeometry x="100" y="80" width="40" height="62.5" as="geometry" />
        </mxCell>
        <mxCell id="DJk8aG4OhRuYf08iFIVC-58" value="" style="rounded=0;whiteSpace=wrap;html=1;" vertex="1" parent="1">
          <mxGeometry x="110" y="180" width="20" height="740" as="geometry" />
        </mxCell>
        <mxCell id="DJk8aG4OhRuYf08iFIVC-61" value="" style="endArrow=none;dashed=1;html=1;rounded=0;" edge="1" parent="1">
          <mxGeometry width="50" height="50" relative="1" as="geometry">
            <mxPoint x="120" y="180" as="sourcePoint" />
            <mxPoint x="120" y="160" as="targetPoint" />
          </mxGeometry>
        </mxCell>
        <mxCell id="DJk8aG4OhRuYf08iFIVC-69" value="" style="endArrow=classic;html=1;rounded=0;entryX=0;entryY=0;entryDx=0;entryDy=0;exitX=1;exitY=0;exitDx=0;exitDy=0;exitPerimeter=0;" edge="1" parent="1">
          <mxGeometry width="50" height="50" relative="1" as="geometry">
            <mxPoint x="130" y="189" as="sourcePoint" />
            <mxPoint x="315" y="189" as="targetPoint" />
          </mxGeometry>
        </mxCell>
        <mxCell id="DJk8aG4OhRuYf08iFIVC-70" value="" style="endArrow=classic;html=1;rounded=0;exitX=0.9;exitY=0.064;exitDx=0;exitDy=0;exitPerimeter=0;" edge="1" parent="1" source="DJk8aG4OhRuYf08iFIVC-58">
          <mxGeometry width="50" height="50" relative="1" as="geometry">
            <mxPoint x="320" y="340" as="sourcePoint" />
            <mxPoint x="316" y="227" as="targetPoint" />
          </mxGeometry>
        </mxCell>
        <mxCell id="DJk8aG4OhRuYf08iFIVC-71" value="" style="endArrow=classic;html=1;rounded=0;exitX=1.067;exitY=0.114;exitDx=0;exitDy=0;exitPerimeter=0;entryX=0;entryY=0.5;entryDx=0;entryDy=0;" edge="1" parent="1" source="DJk8aG4OhRuYf08iFIVC-58">
          <mxGeometry width="50" height="50" relative="1" as="geometry">
            <mxPoint x="320" y="460" as="sourcePoint" />
            <mxPoint x="315" y="263.5" as="targetPoint" />
          </mxGeometry>
        </mxCell>
        <mxCell id="DJk8aG4OhRuYf08iFIVC-72" value="Add a product(Whatsapp &amp;amp; Setup)" style="text;html=1;strokeColor=none;fillColor=none;align=center;verticalAlign=middle;whiteSpace=wrap;rounded=0;" vertex="1" parent="1">
          <mxGeometry x="130" y="270" width="180" height="30" as="geometry" />
        </mxCell>
        <mxCell id="DJk8aG4OhRuYf08iFIVC-73" value="" style="endArrow=classic;html=1;rounded=0;exitX=1.033;exitY=0.179;exitDx=0;exitDy=0;exitPerimeter=0;entryX=0.017;entryY=0.83;entryDx=0;entryDy=0;entryPerimeter=0;" edge="1" parent="1" source="DJk8aG4OhRuYf08iFIVC-58">
          <mxGeometry width="50" height="50" relative="1" as="geometry">
            <mxPoint x="320" y="360" as="sourcePoint" />
            <mxPoint x="315.3399999999999" y="313.99" as="targetPoint" />
          </mxGeometry>
        </mxCell>
        <mxCell id="DJk8aG4OhRuYf08iFIVC-74" value="See Credential" style="text;html=1;strokeColor=none;fillColor=none;align=center;verticalAlign=middle;whiteSpace=wrap;rounded=0;" vertex="1" parent="1">
          <mxGeometry x="145" y="310" width="150" height="30" as="geometry" />
        </mxCell>
        <mxCell id="DJk8aG4OhRuYf08iFIVC-75" value="" style="endArrow=classic;html=1;rounded=0;entryX=0;entryY=0;entryDx=0;entryDy=0;" edge="1" parent="1" target="DJk8aG4OhRuYf08iFIVC-77">
          <mxGeometry width="50" height="50" relative="1" as="geometry">
            <mxPoint x="335" y="340" as="sourcePoint" />
            <mxPoint x="590" y="340" as="targetPoint" />
          </mxGeometry>
        </mxCell>
        <mxCell id="DJk8aG4OhRuYf08iFIVC-76" value="Add Facebook credential(Temporary access token, phone number id, Whatsapp Business ID) during creating provider in Whatsapp graph api app&amp;nbsp;" style="text;html=1;strokeColor=none;fillColor=none;align=center;verticalAlign=middle;whiteSpace=wrap;rounded=0;" vertex="1" parent="1">
          <mxGeometry x="360" y="294" width="230" height="30" as="geometry" />
        </mxCell>
        <mxCell id="DJk8aG4OhRuYf08iFIVC-101" style="edgeStyle=orthogonalEdgeStyle;rounded=0;orthogonalLoop=1;jettySize=auto;html=1;entryX=1;entryY=0;entryDx=0;entryDy=0;" edge="1" parent="1" source="DJk8aG4OhRuYf08iFIVC-77" target="DJk8aG4OhRuYf08iFIVC-96">
          <mxGeometry relative="1" as="geometry">
            <Array as="points">
              <mxPoint x="460" y="440" />
              <mxPoint x="460" y="440" />
            </Array>
          </mxGeometry>
        </mxCell>
        <mxCell id="DJk8aG4OhRuYf08iFIVC-77" value="" style="rounded=0;whiteSpace=wrap;html=1;" vertex="1" parent="1">
          <mxGeometry x="597.5" y="340" width="20" height="100" as="geometry" />
        </mxCell>
        <mxCell id="DJk8aG4OhRuYf08iFIVC-83" value="" style="endArrow=none;dashed=1;html=1;rounded=0;entryX=0.25;entryY=1;entryDx=0;entryDy=0;" edge="1" parent="1" source="DJk8aG4OhRuYf08iFIVC-106" target="DJk8aG4OhRuYf08iFIVC-77">
          <mxGeometry width="50" height="50" relative="1" as="geometry">
            <mxPoint x="605" y="960" as="sourcePoint" />
            <mxPoint x="607.5" y="490" as="targetPoint" />
          </mxGeometry>
        </mxCell>
        <mxCell id="DJk8aG4OhRuYf08iFIVC-86" value="&lt;font style=&quot;font-size: 9px;&quot;&gt;&lt;b&gt;Reload/&lt;br&gt;&amp;nbsp;Get status&lt;/b&gt;&lt;/font&gt;" style="text;html=1;strokeColor=none;fillColor=none;align=center;verticalAlign=middle;whiteSpace=wrap;rounded=0;" vertex="1" parent="1">
          <mxGeometry x="630" y="370" width="60" height="30" as="geometry" />
        </mxCell>
        <mxCell id="DJk8aG4OhRuYf08iFIVC-89" value="" style="endArrow=none;dashed=1;html=1;rounded=0;" edge="1" parent="1" source="DJk8aG4OhRuYf08iFIVC-90">
          <mxGeometry width="50" height="50" relative="1" as="geometry">
            <mxPoint x="323" y="920.6666870117188" as="sourcePoint" />
            <mxPoint x="323" y="160" as="targetPoint" />
          </mxGeometry>
        </mxCell>
        <mxCell id="DJk8aG4OhRuYf08iFIVC-91" value="" style="endArrow=none;dashed=1;html=1;rounded=0;" edge="1" parent="1" target="DJk8aG4OhRuYf08iFIVC-90">
          <mxGeometry width="50" height="50" relative="1" as="geometry">
            <mxPoint x="325" y="227" as="sourcePoint" />
            <mxPoint x="323" y="160" as="targetPoint" />
          </mxGeometry>
        </mxCell>
        <mxCell id="DJk8aG4OhRuYf08iFIVC-90" value="" style="rounded=0;whiteSpace=wrap;html=1;" vertex="1" parent="1">
          <mxGeometry x="315" y="187" width="20" height="153" as="geometry" />
        </mxCell>
        <mxCell id="DJk8aG4OhRuYf08iFIVC-93" value="" style="endArrow=none;dashed=1;html=1;rounded=0;entryX=0.5;entryY=1;entryDx=0;entryDy=0;" edge="1" parent="1" target="DJk8aG4OhRuYf08iFIVC-90">
          <mxGeometry width="50" height="50" relative="1" as="geometry">
            <mxPoint x="323" y="920.6666870117188" as="sourcePoint" />
            <mxPoint x="324.96628390034584" y="250" as="targetPoint" />
          </mxGeometry>
        </mxCell>
        <mxCell id="DJk8aG4OhRuYf08iFIVC-96" value="" style="rounded=0;whiteSpace=wrap;html=1;" vertex="1" parent="1">
          <mxGeometry x="315" y="440" width="20" height="90" as="geometry" />
        </mxCell>
        <mxCell id="DJk8aG4OhRuYf08iFIVC-99" value="" style="endArrow=classic;html=1;rounded=0;" edge="1" parent="1">
          <mxGeometry width="50" height="50" relative="1" as="geometry">
            <mxPoint x="617.5" y="360" as="sourcePoint" />
            <mxPoint x="620" y="400" as="targetPoint" />
            <Array as="points">
              <mxPoint x="640" y="360" />
              <mxPoint x="640" y="400" />
            </Array>
          </mxGeometry>
        </mxCell>
        <mxCell id="DJk8aG4OhRuYf08iFIVC-102" value="&lt;p class=&quot;MsoNormal&quot;&gt;Setup Call Back URL &amp;amp; &amp;nbsp;Verify Token. in facebook to generate Permanat token in whebook&lt;/p&gt;" style="text;html=1;strokeColor=none;fillColor=none;align=center;verticalAlign=middle;whiteSpace=wrap;rounded=0;" vertex="1" parent="1">
          <mxGeometry x="360" y="455" width="225" height="30" as="geometry" />
        </mxCell>
        <mxCell id="DJk8aG4OhRuYf08iFIVC-103" style="edgeStyle=orthogonalEdgeStyle;rounded=0;orthogonalLoop=1;jettySize=auto;html=1;" edge="1" parent="1" source="DJk8aG4OhRuYf08iFIVC-96">
          <mxGeometry relative="1" as="geometry">
            <mxPoint x="316" y="490" as="targetPoint" />
            <Array as="points">
              <mxPoint x="280" y="460" />
              <mxPoint x="280" y="490" />
            </Array>
          </mxGeometry>
        </mxCell>
        <mxCell id="DJk8aG4OhRuYf08iFIVC-105" value="Click on Whatsapp Manager to create whatsapp template" style="text;html=1;strokeColor=none;fillColor=none;align=center;verticalAlign=middle;whiteSpace=wrap;rounded=0;" vertex="1" parent="1">
          <mxGeometry x="155" y="455" width="130" height="30" as="geometry" />
        </mxCell>
        <mxCell id="DJk8aG4OhRuYf08iFIVC-107" value="" style="endArrow=none;dashed=1;html=1;rounded=0;entryX=0.25;entryY=1;entryDx=0;entryDy=0;" edge="1" parent="1" source="DJk8aG4OhRuYf08iFIVC-125" target="DJk8aG4OhRuYf08iFIVC-106">
          <mxGeometry width="50" height="50" relative="1" as="geometry">
            <mxPoint x="601" y="920" as="sourcePoint" />
            <mxPoint x="603" y="440" as="targetPoint" />
          </mxGeometry>
        </mxCell>
        <mxCell id="DJk8aG4OhRuYf08iFIVC-106" value="" style="rounded=0;whiteSpace=wrap;html=1;" vertex="1" parent="1">
          <mxGeometry x="596.25" y="530" width="17.5" height="290" as="geometry" />
        </mxCell>
        <mxCell id="DJk8aG4OhRuYf08iFIVC-111" value="" style="endArrow=classic;html=1;rounded=0;entryX=0;entryY=0;entryDx=0;entryDy=0;" edge="1" parent="1" target="DJk8aG4OhRuYf08iFIVC-106">
          <mxGeometry width="50" height="50" relative="1" as="geometry">
            <mxPoint x="335" y="530" as="sourcePoint" />
            <mxPoint x="385" y="480" as="targetPoint" />
          </mxGeometry>
        </mxCell>
        <mxCell id="DJk8aG4OhRuYf08iFIVC-112" value="Import Templates" style="text;html=1;strokeColor=none;fillColor=none;align=center;verticalAlign=middle;whiteSpace=wrap;rounded=0;" vertex="1" parent="1">
          <mxGeometry x="380" y="535" width="140" height="30" as="geometry" />
        </mxCell>
        <mxCell id="DJk8aG4OhRuYf08iFIVC-114" value="Configure Multi company and multi provider" style="text;html=1;strokeColor=none;fillColor=none;align=center;verticalAlign=middle;whiteSpace=wrap;rounded=0;" vertex="1" parent="1">
          <mxGeometry x="630" y="540" width="60" height="30" as="geometry" />
        </mxCell>
        <mxCell id="DJk8aG4OhRuYf08iFIVC-117" value="Whatsapp History" style="text;html=1;strokeColor=none;fillColor=none;align=center;verticalAlign=middle;whiteSpace=wrap;rounded=0;" vertex="1" parent="1">
          <mxGeometry x="630" y="620" width="60" height="30" as="geometry" />
        </mxCell>
        <mxCell id="DJk8aG4OhRuYf08iFIVC-118" value="Configure mobile number" style="text;html=1;strokeColor=none;fillColor=none;align=center;verticalAlign=middle;whiteSpace=wrap;rounded=0;" vertex="1" parent="1">
          <mxGeometry x="625" y="680" width="60" height="30" as="geometry" />
        </mxCell>
        <mxCell id="DJk8aG4OhRuYf08iFIVC-119" value="compose whatspp msg" style="text;html=1;strokeColor=none;fillColor=none;align=center;verticalAlign=middle;whiteSpace=wrap;rounded=0;" vertex="1" parent="1">
          <mxGeometry x="625" y="770" width="60" height="30" as="geometry" />
        </mxCell>
        <mxCell id="DJk8aG4OhRuYf08iFIVC-120" value="" style="endArrow=classic;html=1;rounded=0;entryX=0.976;entryY=0.209;entryDx=0;entryDy=0;entryPerimeter=0;" edge="1" parent="1" target="DJk8aG4OhRuYf08iFIVC-106">
          <mxGeometry width="50" height="50" relative="1" as="geometry">
            <mxPoint x="613.75" y="540" as="sourcePoint" />
            <mxPoint x="620" y="590" as="targetPoint" />
            <Array as="points">
              <mxPoint x="630" y="540" />
              <mxPoint x="630" y="590" />
            </Array>
          </mxGeometry>
        </mxCell>
        <mxCell id="DJk8aG4OhRuYf08iFIVC-121" value="" style="endArrow=classic;html=1;rounded=0;entryX=1.052;entryY=0.446;entryDx=0;entryDy=0;entryPerimeter=0;" edge="1" parent="1" target="DJk8aG4OhRuYf08iFIVC-106">
          <mxGeometry width="50" height="50" relative="1" as="geometry">
            <mxPoint x="613.75" y="630" as="sourcePoint" />
            <mxPoint x="663.75" y="580" as="targetPoint" />
            <Array as="points">
              <mxPoint x="630" y="630" />
              <mxPoint x="630" y="660" />
            </Array>
          </mxGeometry>
        </mxCell>
        <mxCell id="DJk8aG4OhRuYf08iFIVC-122" value="" style="endArrow=classic;html=1;rounded=0;entryX=1.014;entryY=0.653;entryDx=0;entryDy=0;entryPerimeter=0;" edge="1" parent="1" target="DJk8aG4OhRuYf08iFIVC-106">
          <mxGeometry width="50" height="50" relative="1" as="geometry">
            <mxPoint x="613.75" y="680" as="sourcePoint" />
            <mxPoint x="663.75" y="630" as="targetPoint" />
            <Array as="points">
              <mxPoint x="630" y="680" />
              <mxPoint x="630" y="719" />
            </Array>
          </mxGeometry>
        </mxCell>
        <mxCell id="DJk8aG4OhRuYf08iFIVC-123" value="" style="endArrow=classic;html=1;rounded=0;entryX=0.976;entryY=0.945;entryDx=0;entryDy=0;entryPerimeter=0;" edge="1" parent="1" target="DJk8aG4OhRuYf08iFIVC-106">
          <mxGeometry width="50" height="50" relative="1" as="geometry">
            <mxPoint x="613.75" y="770" as="sourcePoint" />
            <mxPoint x="663.75" y="720" as="targetPoint" />
            <Array as="points">
              <mxPoint x="630" y="770" />
              <mxPoint x="630" y="804" />
            </Array>
          </mxGeometry>
        </mxCell>
        <mxCell id="DJk8aG4OhRuYf08iFIVC-126" value="" style="endArrow=none;dashed=1;html=1;rounded=0;entryX=0.25;entryY=1;entryDx=0;entryDy=0;" edge="1" parent="1" target="DJk8aG4OhRuYf08iFIVC-125">
          <mxGeometry width="50" height="50" relative="1" as="geometry">
            <mxPoint x="601" y="920" as="sourcePoint" />
            <mxPoint x="601" y="820" as="targetPoint" />
          </mxGeometry>
        </mxCell>
        <mxCell id="DJk8aG4OhRuYf08iFIVC-125" value="" style="rounded=0;whiteSpace=wrap;html=1;" vertex="1" parent="1">
          <mxGeometry x="593.75" y="830" width="20" height="40" as="geometry" />
        </mxCell>
        <mxCell id="DJk8aG4OhRuYf08iFIVC-127" value="Chat window" style="text;html=1;strokeColor=none;fillColor=none;align=center;verticalAlign=middle;whiteSpace=wrap;rounded=0;" vertex="1" parent="1">
          <mxGeometry x="620" y="835" width="60" height="30" as="geometry" />
        </mxCell>
      </root>
    </mxGraphModel>
  </diagram>
</mxfile>
